<mxfile host="app.diagrams.net" modified="2023-11-24T07:05:18.213Z" agent="Mozilla/5.0 (Windows NT 10.0; Win64; x64) AppleWebKit/537.36 (KHTML, like Gecko) Chrome/118.0.0.0 Safari/537.36 OPR/104.0.0.0" etag="BYyp8yDAfys_eITcP10O" version="22.1.3" type="github">
  <diagram name="Page-1" id="IUICJ4abyswfcAE5CkRX">
    <mxGraphModel dx="1526" dy="430" grid="1" gridSize="10" guides="1" tooltips="1" connect="1" arrows="1" fold="1" page="1" pageScale="1" pageWidth="850" pageHeight="1100" math="0" shadow="0">
      <root>
        <mxCell id="0" />
        <mxCell id="1" parent="0" />
        <mxCell id="oSj_Bxfb-G65IRj9xR7D-7" style="edgeStyle=orthogonalEdgeStyle;rounded=0;orthogonalLoop=1;jettySize=auto;html=1;entryX=0;entryY=0.5;entryDx=0;entryDy=0;" parent="1" source="oSj_Bxfb-G65IRj9xR7D-1" target="oSj_Bxfb-G65IRj9xR7D-2" edge="1">
          <mxGeometry relative="1" as="geometry" />
        </mxCell>
        <mxCell id="oSj_Bxfb-G65IRj9xR7D-14" style="edgeStyle=orthogonalEdgeStyle;rounded=0;orthogonalLoop=1;jettySize=auto;html=1;" parent="1" source="oSj_Bxfb-G65IRj9xR7D-1" target="oSj_Bxfb-G65IRj9xR7D-9" edge="1">
          <mxGeometry relative="1" as="geometry">
            <Array as="points">
              <mxPoint x="110" y="405" />
              <mxPoint x="50" y="405" />
            </Array>
          </mxGeometry>
        </mxCell>
        <mxCell id="oSj_Bxfb-G65IRj9xR7D-17" style="edgeStyle=orthogonalEdgeStyle;rounded=0;orthogonalLoop=1;jettySize=auto;html=1;" parent="1" source="oSj_Bxfb-G65IRj9xR7D-1" target="oSj_Bxfb-G65IRj9xR7D-12" edge="1">
          <mxGeometry relative="1" as="geometry" />
        </mxCell>
        <mxCell id="oSj_Bxfb-G65IRj9xR7D-1" value="Login" style="rounded=0;whiteSpace=wrap;html=1;" parent="1" vertex="1">
          <mxGeometry x="90" y="300" width="120" height="60" as="geometry" />
        </mxCell>
        <mxCell id="oSj_Bxfb-G65IRj9xR7D-11" style="edgeStyle=orthogonalEdgeStyle;rounded=0;orthogonalLoop=1;jettySize=auto;html=1;" parent="1" source="oSj_Bxfb-G65IRj9xR7D-2" target="oSj_Bxfb-G65IRj9xR7D-3" edge="1">
          <mxGeometry relative="1" as="geometry" />
        </mxCell>
        <mxCell id="9ImhwKFZS01UdK5u9Hjt-4" style="edgeStyle=orthogonalEdgeStyle;rounded=0;orthogonalLoop=1;jettySize=auto;html=1;" edge="1" parent="1" source="oSj_Bxfb-G65IRj9xR7D-2" target="oSj_Bxfb-G65IRj9xR7D-27">
          <mxGeometry relative="1" as="geometry">
            <Array as="points">
              <mxPoint x="470" y="340" />
            </Array>
          </mxGeometry>
        </mxCell>
        <mxCell id="9ImhwKFZS01UdK5u9Hjt-6" style="edgeStyle=orthogonalEdgeStyle;rounded=0;orthogonalLoop=1;jettySize=auto;html=1;" edge="1" parent="1" source="oSj_Bxfb-G65IRj9xR7D-2" target="oSj_Bxfb-G65IRj9xR7D-12">
          <mxGeometry relative="1" as="geometry">
            <Array as="points">
              <mxPoint x="310" y="410" />
              <mxPoint x="170" y="410" />
            </Array>
          </mxGeometry>
        </mxCell>
        <mxCell id="oSj_Bxfb-G65IRj9xR7D-2" value="Add a new channel" style="rounded=0;whiteSpace=wrap;html=1;" parent="1" vertex="1">
          <mxGeometry x="250" y="300" width="120" height="60" as="geometry" />
        </mxCell>
        <mxCell id="oSj_Bxfb-G65IRj9xR7D-32" style="edgeStyle=orthogonalEdgeStyle;rounded=0;orthogonalLoop=1;jettySize=auto;html=1;entryX=0.75;entryY=1;entryDx=0;entryDy=0;" parent="1" source="oSj_Bxfb-G65IRj9xR7D-3" target="oSj_Bxfb-G65IRj9xR7D-27" edge="1">
          <mxGeometry relative="1" as="geometry">
            <Array as="points">
              <mxPoint x="500" y="980" />
            </Array>
          </mxGeometry>
        </mxCell>
        <mxCell id="9ImhwKFZS01UdK5u9Hjt-11" style="edgeStyle=orthogonalEdgeStyle;rounded=0;orthogonalLoop=1;jettySize=auto;html=1;entryX=0;entryY=0.5;entryDx=0;entryDy=0;" edge="1" parent="1" source="oSj_Bxfb-G65IRj9xR7D-3" target="oSj_Bxfb-G65IRj9xR7D-12">
          <mxGeometry relative="1" as="geometry">
            <Array as="points">
              <mxPoint x="900" y="1020" />
              <mxPoint x="50" y="1020" />
              <mxPoint x="50" y="660" />
            </Array>
          </mxGeometry>
        </mxCell>
        <mxCell id="9ImhwKFZS01UdK5u9Hjt-18" style="edgeStyle=orthogonalEdgeStyle;rounded=0;orthogonalLoop=1;jettySize=auto;html=1;entryX=0;entryY=1;entryDx=0;entryDy=0;" edge="1" parent="1" source="oSj_Bxfb-G65IRj9xR7D-3" target="oSj_Bxfb-G65IRj9xR7D-25">
          <mxGeometry relative="1" as="geometry" />
        </mxCell>
        <mxCell id="oSj_Bxfb-G65IRj9xR7D-3" value="Send a message/file" style="rounded=0;whiteSpace=wrap;html=1;" parent="1" vertex="1">
          <mxGeometry x="840" y="940" width="120" height="60" as="geometry" />
        </mxCell>
        <mxCell id="oSj_Bxfb-G65IRj9xR7D-49" style="edgeStyle=orthogonalEdgeStyle;rounded=0;orthogonalLoop=1;jettySize=auto;html=1;" parent="1" source="oSj_Bxfb-G65IRj9xR7D-9" target="oSj_Bxfb-G65IRj9xR7D-12" edge="1">
          <mxGeometry relative="1" as="geometry">
            <Array as="points">
              <mxPoint x="50" y="570" />
              <mxPoint x="120" y="570" />
            </Array>
          </mxGeometry>
        </mxCell>
        <mxCell id="oSj_Bxfb-G65IRj9xR7D-9" value="Search a channel" style="rounded=0;whiteSpace=wrap;html=1;" parent="1" vertex="1">
          <mxGeometry x="-10" y="450" width="120" height="60" as="geometry" />
        </mxCell>
        <mxCell id="oSj_Bxfb-G65IRj9xR7D-30" style="edgeStyle=orthogonalEdgeStyle;rounded=0;orthogonalLoop=1;jettySize=auto;html=1;" parent="1" source="oSj_Bxfb-G65IRj9xR7D-10" target="oSj_Bxfb-G65IRj9xR7D-27" edge="1">
          <mxGeometry relative="1" as="geometry">
            <Array as="points">
              <mxPoint x="470" y="920" />
            </Array>
          </mxGeometry>
        </mxCell>
        <mxCell id="9ImhwKFZS01UdK5u9Hjt-1" style="edgeStyle=orthogonalEdgeStyle;rounded=0;orthogonalLoop=1;jettySize=auto;html=1;entryX=0;entryY=1;entryDx=0;entryDy=0;" edge="1" parent="1" source="oSj_Bxfb-G65IRj9xR7D-10" target="oSj_Bxfb-G65IRj9xR7D-12">
          <mxGeometry relative="1" as="geometry" />
        </mxCell>
        <mxCell id="oSj_Bxfb-G65IRj9xR7D-10" value="Delete a channel" style="rounded=0;whiteSpace=wrap;html=1;" parent="1" vertex="1">
          <mxGeometry x="750" y="870" width="120" height="60" as="geometry" />
        </mxCell>
        <mxCell id="oSj_Bxfb-G65IRj9xR7D-16" style="edgeStyle=orthogonalEdgeStyle;rounded=0;orthogonalLoop=1;jettySize=auto;html=1;" parent="1" source="oSj_Bxfb-G65IRj9xR7D-12" target="oSj_Bxfb-G65IRj9xR7D-3" edge="1">
          <mxGeometry relative="1" as="geometry">
            <Array as="points">
              <mxPoint x="880" y="690" />
            </Array>
          </mxGeometry>
        </mxCell>
        <mxCell id="oSj_Bxfb-G65IRj9xR7D-19" style="edgeStyle=orthogonalEdgeStyle;rounded=0;orthogonalLoop=1;jettySize=auto;html=1;" parent="1" source="oSj_Bxfb-G65IRj9xR7D-12" target="oSj_Bxfb-G65IRj9xR7D-10" edge="1">
          <mxGeometry relative="1" as="geometry" />
        </mxCell>
        <mxCell id="oSj_Bxfb-G65IRj9xR7D-22" style="edgeStyle=orthogonalEdgeStyle;rounded=0;orthogonalLoop=1;jettySize=auto;html=1;" parent="1" source="oSj_Bxfb-G65IRj9xR7D-12" target="oSj_Bxfb-G65IRj9xR7D-21" edge="1">
          <mxGeometry relative="1" as="geometry">
            <Array as="points">
              <mxPoint x="620" y="680" />
            </Array>
          </mxGeometry>
        </mxCell>
        <mxCell id="oSj_Bxfb-G65IRj9xR7D-24" style="edgeStyle=orthogonalEdgeStyle;rounded=0;orthogonalLoop=1;jettySize=auto;html=1;" parent="1" source="oSj_Bxfb-G65IRj9xR7D-12" target="oSj_Bxfb-G65IRj9xR7D-23" edge="1">
          <mxGeometry relative="1" as="geometry">
            <Array as="points">
              <mxPoint x="620" y="670" />
            </Array>
          </mxGeometry>
        </mxCell>
        <mxCell id="oSj_Bxfb-G65IRj9xR7D-26" style="edgeStyle=orthogonalEdgeStyle;rounded=0;orthogonalLoop=1;jettySize=auto;html=1;" parent="1" source="oSj_Bxfb-G65IRj9xR7D-12" target="oSj_Bxfb-G65IRj9xR7D-25" edge="1">
          <mxGeometry relative="1" as="geometry">
            <Array as="points">
              <mxPoint x="180" y="710" />
              <mxPoint x="310" y="710" />
            </Array>
          </mxGeometry>
        </mxCell>
        <mxCell id="oSj_Bxfb-G65IRj9xR7D-36" style="edgeStyle=orthogonalEdgeStyle;rounded=0;orthogonalLoop=1;jettySize=auto;html=1;" parent="1" source="oSj_Bxfb-G65IRj9xR7D-12" target="oSj_Bxfb-G65IRj9xR7D-35" edge="1">
          <mxGeometry relative="1" as="geometry" />
        </mxCell>
        <mxCell id="oSj_Bxfb-G65IRj9xR7D-42" style="edgeStyle=orthogonalEdgeStyle;rounded=0;orthogonalLoop=1;jettySize=auto;html=1;" parent="1" source="oSj_Bxfb-G65IRj9xR7D-12" target="oSj_Bxfb-G65IRj9xR7D-41" edge="1">
          <mxGeometry relative="1" as="geometry">
            <Array as="points">
              <mxPoint x="310" y="650" />
            </Array>
          </mxGeometry>
        </mxCell>
        <mxCell id="oSj_Bxfb-G65IRj9xR7D-12" value="Select a channel" style="rounded=0;whiteSpace=wrap;html=1;" parent="1" vertex="1">
          <mxGeometry x="90" y="630" width="120" height="60" as="geometry" />
        </mxCell>
        <mxCell id="oSj_Bxfb-G65IRj9xR7D-29" style="edgeStyle=orthogonalEdgeStyle;rounded=0;orthogonalLoop=1;jettySize=auto;html=1;" parent="1" source="oSj_Bxfb-G65IRj9xR7D-21" target="oSj_Bxfb-G65IRj9xR7D-27" edge="1">
          <mxGeometry relative="1" as="geometry">
            <Array as="points">
              <mxPoint x="620" y="820" />
            </Array>
          </mxGeometry>
        </mxCell>
        <mxCell id="9ImhwKFZS01UdK5u9Hjt-10" style="edgeStyle=orthogonalEdgeStyle;rounded=0;orthogonalLoop=1;jettySize=auto;html=1;entryX=0.25;entryY=1;entryDx=0;entryDy=0;" edge="1" parent="1" source="oSj_Bxfb-G65IRj9xR7D-21" target="oSj_Bxfb-G65IRj9xR7D-12">
          <mxGeometry relative="1" as="geometry">
            <Array as="points">
              <mxPoint x="640" y="870" />
              <mxPoint x="120" y="870" />
            </Array>
          </mxGeometry>
        </mxCell>
        <mxCell id="9ImhwKFZS01UdK5u9Hjt-14" style="edgeStyle=orthogonalEdgeStyle;rounded=0;orthogonalLoop=1;jettySize=auto;html=1;entryX=1;entryY=0;entryDx=0;entryDy=0;" edge="1" parent="1" source="oSj_Bxfb-G65IRj9xR7D-21" target="oSj_Bxfb-G65IRj9xR7D-25">
          <mxGeometry relative="1" as="geometry">
            <Array as="points">
              <mxPoint x="590" y="710" />
              <mxPoint x="370" y="710" />
            </Array>
          </mxGeometry>
        </mxCell>
        <mxCell id="9ImhwKFZS01UdK5u9Hjt-23" style="edgeStyle=orthogonalEdgeStyle;rounded=0;orthogonalLoop=1;jettySize=auto;html=1;" edge="1" parent="1" source="oSj_Bxfb-G65IRj9xR7D-21" target="oSj_Bxfb-G65IRj9xR7D-25">
          <mxGeometry relative="1" as="geometry">
            <Array as="points">
              <mxPoint x="510" y="760" />
              <mxPoint x="510" y="760" />
            </Array>
          </mxGeometry>
        </mxCell>
        <mxCell id="oSj_Bxfb-G65IRj9xR7D-21" value="Change channel topic" style="rounded=0;whiteSpace=wrap;html=1;" parent="1" vertex="1">
          <mxGeometry x="560" y="720" width="120" height="60" as="geometry" />
        </mxCell>
        <mxCell id="oSj_Bxfb-G65IRj9xR7D-48" style="edgeStyle=orthogonalEdgeStyle;rounded=0;orthogonalLoop=1;jettySize=auto;html=1;" parent="1" source="oSj_Bxfb-G65IRj9xR7D-23" target="oSj_Bxfb-G65IRj9xR7D-3" edge="1">
          <mxGeometry relative="1" as="geometry" />
        </mxCell>
        <mxCell id="9ImhwKFZS01UdK5u9Hjt-3" style="edgeStyle=orthogonalEdgeStyle;rounded=0;orthogonalLoop=1;jettySize=auto;html=1;" edge="1" parent="1" source="oSj_Bxfb-G65IRj9xR7D-23" target="oSj_Bxfb-G65IRj9xR7D-27">
          <mxGeometry relative="1" as="geometry">
            <Array as="points">
              <mxPoint x="520" y="490" />
            </Array>
          </mxGeometry>
        </mxCell>
        <mxCell id="9ImhwKFZS01UdK5u9Hjt-13" style="edgeStyle=orthogonalEdgeStyle;rounded=0;orthogonalLoop=1;jettySize=auto;html=1;" edge="1" parent="1" source="oSj_Bxfb-G65IRj9xR7D-23" target="oSj_Bxfb-G65IRj9xR7D-21">
          <mxGeometry relative="1" as="geometry">
            <Array as="points">
              <mxPoint x="650" y="620" />
              <mxPoint x="650" y="620" />
            </Array>
          </mxGeometry>
        </mxCell>
        <mxCell id="9ImhwKFZS01UdK5u9Hjt-15" style="edgeStyle=orthogonalEdgeStyle;rounded=0;orthogonalLoop=1;jettySize=auto;html=1;" edge="1" parent="1" source="oSj_Bxfb-G65IRj9xR7D-23" target="oSj_Bxfb-G65IRj9xR7D-41">
          <mxGeometry relative="1" as="geometry">
            <Array as="points">
              <mxPoint x="460" y="470" />
              <mxPoint x="460" y="470" />
            </Array>
          </mxGeometry>
        </mxCell>
        <mxCell id="9ImhwKFZS01UdK5u9Hjt-19" style="edgeStyle=orthogonalEdgeStyle;rounded=0;orthogonalLoop=1;jettySize=auto;html=1;" edge="1" parent="1" source="oSj_Bxfb-G65IRj9xR7D-23" target="oSj_Bxfb-G65IRj9xR7D-2">
          <mxGeometry relative="1" as="geometry">
            <Array as="points">
              <mxPoint x="620" y="410" />
              <mxPoint x="350" y="410" />
            </Array>
          </mxGeometry>
        </mxCell>
        <mxCell id="oSj_Bxfb-G65IRj9xR7D-23" value="Download files" style="rounded=0;whiteSpace=wrap;html=1;" parent="1" vertex="1">
          <mxGeometry x="560" y="460" width="120" height="60" as="geometry" />
        </mxCell>
        <mxCell id="oSj_Bxfb-G65IRj9xR7D-28" style="edgeStyle=orthogonalEdgeStyle;rounded=0;orthogonalLoop=1;jettySize=auto;html=1;" parent="1" source="oSj_Bxfb-G65IRj9xR7D-25" target="oSj_Bxfb-G65IRj9xR7D-27" edge="1">
          <mxGeometry relative="1" as="geometry">
            <Array as="points">
              <mxPoint x="310" y="830" />
            </Array>
          </mxGeometry>
        </mxCell>
        <mxCell id="9ImhwKFZS01UdK5u9Hjt-17" style="edgeStyle=orthogonalEdgeStyle;rounded=0;orthogonalLoop=1;jettySize=auto;html=1;" edge="1" parent="1" source="oSj_Bxfb-G65IRj9xR7D-25" target="oSj_Bxfb-G65IRj9xR7D-21">
          <mxGeometry relative="1" as="geometry">
            <Array as="points">
              <mxPoint x="460" y="740" />
              <mxPoint x="460" y="740" />
            </Array>
          </mxGeometry>
        </mxCell>
        <mxCell id="oSj_Bxfb-G65IRj9xR7D-25" value="Pin a message" style="rounded=0;whiteSpace=wrap;html=1;" parent="1" vertex="1">
          <mxGeometry x="250" y="730" width="120" height="60" as="geometry" />
        </mxCell>
        <mxCell id="oSj_Bxfb-G65IRj9xR7D-27" value="End" style="rounded=0;whiteSpace=wrap;html=1;" parent="1" vertex="1">
          <mxGeometry x="410" y="790" width="120" height="60" as="geometry" />
        </mxCell>
        <mxCell id="oSj_Bxfb-G65IRj9xR7D-31" style="edgeStyle=orthogonalEdgeStyle;rounded=0;orthogonalLoop=1;jettySize=auto;html=1;" parent="1" source="oSj_Bxfb-G65IRj9xR7D-3" target="oSj_Bxfb-G65IRj9xR7D-3" edge="1">
          <mxGeometry relative="1" as="geometry" />
        </mxCell>
        <mxCell id="oSj_Bxfb-G65IRj9xR7D-37" style="edgeStyle=orthogonalEdgeStyle;rounded=0;orthogonalLoop=1;jettySize=auto;html=1;" parent="1" source="oSj_Bxfb-G65IRj9xR7D-35" target="oSj_Bxfb-G65IRj9xR7D-27" edge="1">
          <mxGeometry relative="1" as="geometry">
            <Array as="points">
              <mxPoint x="440" y="980" />
            </Array>
          </mxGeometry>
        </mxCell>
        <mxCell id="oSj_Bxfb-G65IRj9xR7D-39" style="edgeStyle=orthogonalEdgeStyle;rounded=0;orthogonalLoop=1;jettySize=auto;html=1;" parent="1" source="oSj_Bxfb-G65IRj9xR7D-35" target="oSj_Bxfb-G65IRj9xR7D-3" edge="1">
          <mxGeometry relative="1" as="geometry">
            <Array as="points">
              <mxPoint x="520" y="990" />
              <mxPoint x="520" y="990" />
            </Array>
          </mxGeometry>
        </mxCell>
        <mxCell id="9ImhwKFZS01UdK5u9Hjt-12" style="edgeStyle=orthogonalEdgeStyle;rounded=0;orthogonalLoop=1;jettySize=auto;html=1;entryX=0;entryY=0.75;entryDx=0;entryDy=0;" edge="1" parent="1" source="oSj_Bxfb-G65IRj9xR7D-35" target="oSj_Bxfb-G65IRj9xR7D-12">
          <mxGeometry relative="1" as="geometry">
            <Array as="points">
              <mxPoint x="70" y="970" />
              <mxPoint x="70" y="675" />
            </Array>
          </mxGeometry>
        </mxCell>
        <mxCell id="oSj_Bxfb-G65IRj9xR7D-35" value="Open file" style="rounded=0;whiteSpace=wrap;html=1;" parent="1" vertex="1">
          <mxGeometry x="90" y="940" width="120" height="60" as="geometry" />
        </mxCell>
        <mxCell id="oSj_Bxfb-G65IRj9xR7D-44" style="edgeStyle=orthogonalEdgeStyle;rounded=0;orthogonalLoop=1;jettySize=auto;html=1;" parent="1" source="oSj_Bxfb-G65IRj9xR7D-41" target="oSj_Bxfb-G65IRj9xR7D-27" edge="1">
          <mxGeometry relative="1" as="geometry">
            <Array as="points">
              <mxPoint x="420" y="490" />
            </Array>
          </mxGeometry>
        </mxCell>
        <mxCell id="9ImhwKFZS01UdK5u9Hjt-7" style="edgeStyle=orthogonalEdgeStyle;rounded=0;orthogonalLoop=1;jettySize=auto;html=1;entryX=0.75;entryY=0;entryDx=0;entryDy=0;" edge="1" parent="1" source="oSj_Bxfb-G65IRj9xR7D-41" target="oSj_Bxfb-G65IRj9xR7D-12">
          <mxGeometry relative="1" as="geometry" />
        </mxCell>
        <mxCell id="9ImhwKFZS01UdK5u9Hjt-21" style="edgeStyle=orthogonalEdgeStyle;rounded=0;orthogonalLoop=1;jettySize=auto;html=1;" edge="1" parent="1" source="oSj_Bxfb-G65IRj9xR7D-41" target="oSj_Bxfb-G65IRj9xR7D-23">
          <mxGeometry relative="1" as="geometry">
            <Array as="points">
              <mxPoint x="460" y="510" />
              <mxPoint x="460" y="510" />
            </Array>
          </mxGeometry>
        </mxCell>
        <mxCell id="9ImhwKFZS01UdK5u9Hjt-22" style="edgeStyle=orthogonalEdgeStyle;rounded=0;orthogonalLoop=1;jettySize=auto;html=1;entryX=0.25;entryY=0;entryDx=0;entryDy=0;" edge="1" parent="1" source="oSj_Bxfb-G65IRj9xR7D-41" target="oSj_Bxfb-G65IRj9xR7D-25">
          <mxGeometry relative="1" as="geometry">
            <Array as="points">
              <mxPoint x="280" y="570" />
              <mxPoint x="280" y="570" />
            </Array>
          </mxGeometry>
        </mxCell>
        <mxCell id="oSj_Bxfb-G65IRj9xR7D-41" value="Read a message" style="rounded=0;whiteSpace=wrap;html=1;" parent="1" vertex="1">
          <mxGeometry x="250" y="460" width="120" height="60" as="geometry" />
        </mxCell>
        <mxCell id="oSj_Bxfb-G65IRj9xR7D-43" style="edgeStyle=orthogonalEdgeStyle;rounded=0;orthogonalLoop=1;jettySize=auto;html=1;" parent="1" source="oSj_Bxfb-G65IRj9xR7D-41" target="oSj_Bxfb-G65IRj9xR7D-41" edge="1">
          <mxGeometry relative="1" as="geometry" />
        </mxCell>
        <mxCell id="oSj_Bxfb-G65IRj9xR7D-45" style="edgeStyle=orthogonalEdgeStyle;rounded=0;orthogonalLoop=1;jettySize=auto;html=1;" parent="1" source="oSj_Bxfb-G65IRj9xR7D-25" target="oSj_Bxfb-G65IRj9xR7D-25" edge="1">
          <mxGeometry relative="1" as="geometry" />
        </mxCell>
        <mxCell id="oSj_Bxfb-G65IRj9xR7D-47" style="edgeStyle=orthogonalEdgeStyle;rounded=0;orthogonalLoop=1;jettySize=auto;html=1;" parent="1" source="oSj_Bxfb-G65IRj9xR7D-23" target="oSj_Bxfb-G65IRj9xR7D-23" edge="1">
          <mxGeometry relative="1" as="geometry" />
        </mxCell>
        <mxCell id="oSj_Bxfb-G65IRj9xR7D-50" style="edgeStyle=orthogonalEdgeStyle;rounded=0;orthogonalLoop=1;jettySize=auto;html=1;entryX=1;entryY=0.75;entryDx=0;entryDy=0;" parent="1" source="oSj_Bxfb-G65IRj9xR7D-21" target="oSj_Bxfb-G65IRj9xR7D-21" edge="1">
          <mxGeometry relative="1" as="geometry" />
        </mxCell>
        <mxCell id="9ImhwKFZS01UdK5u9Hjt-8" style="edgeStyle=orthogonalEdgeStyle;rounded=0;orthogonalLoop=1;jettySize=auto;html=1;" edge="1" parent="1" source="oSj_Bxfb-G65IRj9xR7D-23" target="oSj_Bxfb-G65IRj9xR7D-12">
          <mxGeometry relative="1" as="geometry">
            <Array as="points">
              <mxPoint x="620" y="450" />
              <mxPoint x="130" y="450" />
            </Array>
          </mxGeometry>
        </mxCell>
        <mxCell id="9ImhwKFZS01UdK5u9Hjt-9" style="edgeStyle=orthogonalEdgeStyle;rounded=0;orthogonalLoop=1;jettySize=auto;html=1;entryX=0.606;entryY=0.971;entryDx=0;entryDy=0;entryPerimeter=0;" edge="1" parent="1" source="oSj_Bxfb-G65IRj9xR7D-25" target="oSj_Bxfb-G65IRj9xR7D-12">
          <mxGeometry relative="1" as="geometry" />
        </mxCell>
      </root>
    </mxGraphModel>
  </diagram>
</mxfile>
